<svg version="1.0" xmlns="http://www.w3.org/2000/svg" width="64px" height="64px" viewBox="0 0 64 64"><g transform="translate(0.000000,64) scale(0.100000,-0.100000)" fill="#101A1A" stroke="none"><path d="M108 567 c-59 -40 -108 -78 -108 -85 0 -7 18 -37 40 -67 39 -52 70
-69 85 -45 20 32 25 -6 25 -180 l0 -190 40 0 c33 0 40 3 40 20 0 13 -7 20 -20 20 -19 0 -20 7 -20 105 0 105 0 105 25 105 l24 0 3 -123 3 -122 123 -3 122 -3 0 197 c0 190 1 197 18 181 10 -10 26 -17 35 -17 18 0 97 100 97 122 0 7 -50 46 -110 86 l-110 72 -102 -1 -103 0 -107 -72z m151 -64 l33 -77 -21 -43 c-12 -24 -21 -52 -21 -63 0 -50 32 -9 95 120 38 77 73 140 77 140 5 0 44 -24 88 -53 l80 -54 -22 -29 c-12 -16 -23 -31 -25 -33 -2 -3 -17 6 -34 18 -48 36 -59 24 -59 -69 l0 -80 -130 0 -130 0 0 85 c0 96 -7 103 -61 63 -26 -20 -32 -21 -39 -8 -5 8 -15 24 -23 35 -14 18 -11 23 61 72 43 28 82 52 87 52 6 1 26 -34 44 -76z m191 -358 l0 -105 -85 0 -85 0 0 105 0 105 85 0 85 0 0 -105z"/></g></svg>
